<?xml version="1.0" encoding="UTF-8"?>
<svg xmlns="http://www.w3.org/2000/svg" viewBox="0 0 1020 800">
  <defs>
    <style>
      .cls-1 {
        fill: #fbbb45;
      }

      .cls-1, .cls-2, .cls-3, .cls-4, .cls-5, .cls-6, .cls-7, .cls-8, .cls-9, .cls-10, .cls-11, .cls-12, .cls-13, .cls-14, .cls-15, .cls-16, .cls-17, .cls-18, .cls-19, .cls-20, .cls-21, .cls-22, .cls-23, .cls-24, .cls-25 {
        stroke-width: 0px;
      }

      .cls-2 {
        fill: #e94668;
      }

      .cls-3 {
        fill: #d1e1eb;
        mix-blend-mode: multiply;
      }

      .cls-4 {
        fill: #205aa2;
      }

      .cls-26 {
        fill: none;
        stroke: #205aa2;
        stroke-linecap: round;
        stroke-linejoin: round;
        stroke-width: 1.13px;
      }

      .cls-5 {
        fill: #f2b640;
      }

      .cls-27 {
        isolation: isolate;
      }

      .cls-6 {
        fill: #f7a941;
      }

      .cls-7 {
        fill: #fdc746;
      }

      .cls-8 {
        fill: #1e5091;
      }

      .cls-9 {
        fill: #1b467f;
      }

      .cls-10 {
        fill: #f18e8e;
      }

      .cls-11 {
        fill: #c63a58;
      }

      .cls-12 {
        fill: #9d9d9c;
      }

      .cls-13 {
        fill: #f7b79a;
        opacity: .77;
      }

      .cls-14 {
        fill: #f7a833;
      }

      .cls-15 {
        fill: #1f5397;
      }

      .cls-16 {
        fill: #2799d6;
      }

      .cls-17 {
        fill: #0083c8;
      }

      .cls-18 {
        fill: #e49c2f;
      }

      .cls-19 {
        fill: #342d27;
      }

      .cls-20 {
        fill: #fff;
      }

      .cls-21 {
        fill: #254a97;
      }

      .cls-22 {
        fill: #4c433e;
      }

      .cls-23 {
        fill: #e73454;
      }

      .cls-24 {
        fill: #1e3976;
      }

      .cls-25 {
        fill: #d73f5b;
      }
    </style>
  </defs>
  <g class="cls-27">
    <g id="Capa_1" data-name="Capa 1">
      <rect class="cls-13" width="1020" height="800"/>
      <ellipse class="cls-3" cx="524.35" cy="594.71" rx="368.05" ry="26.15"/>
      <path class="cls-3" d="M262.47,681.73c0,5.25,22.42,9.51,50.07,9.51s50.06-4.26,50.06-9.51-22.41-9.51-50.06-9.51-50.07,4.26-50.07,9.51Z"/>
      <path class="cls-3" d="M671.69,686.89c0,5.25,22.42,9.51,50.07,9.51s50.06-4.26,50.06-9.51-22.41-9.51-50.06-9.51-50.07,4.26-50.07,9.51Z"/>
      <g>
        <g>
          <rect class="cls-7" x="278.71" y="236.72" width="482.05" height="358"/>
          <rect class="cls-2" x="278.71" y="236.72" width="482.05" height="66.94"/>
          <g>
            <path class="cls-20" d="M640.56,270.19c0,6.72-5.46,12.17-12.18,12.17s-12.17-5.45-12.17-12.17,5.45-12.18,12.17-12.18,12.18,5.46,12.18,12.18Z"/>
            <path class="cls-20" d="M677.99,270.19c0,6.72-5.45,12.17-12.17,12.17s-12.17-5.45-12.17-12.17,5.44-12.18,12.17-12.18,12.17,5.46,12.17,12.18Z"/>
            <path class="cls-20" d="M715.12,270.19c0,6.72-5.45,12.17-12.17,12.17s-12.17-5.45-12.17-12.17,5.45-12.18,12.17-12.18,12.17,5.46,12.17,12.18Z"/>
          </g>
        </g>
        <g>
          <rect class="cls-20" x="353.26" y="496.1" width="334.25" height="45.33"/>
          <rect class="cls-20" x="353.26" y="554.28" width="334.25" height="17.15"/>
          <g>
            <rect class="cls-2" x="483.33" y="503.24" width="69.93" height="31.05"/>
            <g>
              <path class="cls-20" d="M502.07,527.75v-18.13h4.09c1.08,0,2.05.28,2.92.85.74.48,1.27,1.23,1.59,2.24.18.54.26,1.18.26,1.92,0,1.21-.32,2.19-.97,2.92-.27.31-.59.54-.95.71.61.23,1.12.69,1.55,1.37.28.46.48,1.06.62,1.79.07.38.1.8.1,1.26,0,1.15-.22,2.12-.65,2.92-.34.63-.81,1.13-1.43,1.5-.7.42-1.38.64-2.07.64h-5.06ZM505.01,517.02h1.14c.85,0,1.41-.41,1.7-1.24.11-.31.16-.69.16-1.14,0-.75-.18-1.32-.55-1.71-.34-.36-.77-.54-1.31-.54h-1.14v4.63ZM505.01,525.04h1.14c.93,0,1.57-.48,1.92-1.43.13-.33.19-.7.19-1.13,0-1.01-.19-1.75-.58-2.21-.35-.42-.86-.64-1.53-.64h-1.14v5.41Z"/>
              <path class="cls-20" d="M517.94,527.95c-1.2,0-2.23-.42-3.06-1.26-.84-.84-1.26-1.86-1.26-3.05v-14.01h2.67v13.98c0,.43.16.8.46,1.11.31.3.68.46,1.11.46s.81-.15,1.11-.46c.3-.3.45-.67.45-1.11v-13.98h2.85v14.01c0,1.21-.43,2.24-1.27,3.06-.85.83-1.87,1.24-3.06,1.24Z"/>
              <path class="cls-20" d="M528.1,520.16l-3.66-10.54h3l2.02,6.51,2.01-6.51h3.02l-3.67,10.54v7.59h-2.73v-7.59Z"/>
            </g>
          </g>
          <g>
            <line class="cls-26" x1="596.98" y1="505.46" x2="594.91" y2="512.81"/>
            <line class="cls-26" x1="566.88" y1="534.5" x2="574.05" y2="531.9"/>
            <line class="cls-26" x1="566.65" y1="522.16" x2="574.28" y2="522.16"/>
            <line class="cls-26" x1="584.78" y1="503.24" x2="584.78" y2="510.87"/>
            <line class="cls-26" x1="570.47" y1="508.38" x2="576.25" y2="513.36"/>
            <polygon class="cls-4" points="603.73 552.8 614.5 542.94 597.51 524.37 604.79 517.71 579.51 515.5 579.46 540.87 586.74 534.21 603.73 552.8"/>
          </g>
          <g>
            <rect class="cls-20" x="351.86" y="325.07" width="87.58" height="64.31"/>
            <rect class="cls-20" x="474.03" y="325.07" width="87.58" height="64.31"/>
            <rect class="cls-20" x="600.02" y="325.07" width="87.59" height="64.31"/>
            <path class="cls-12" d="M429.53,363.99h0c-.17-2.42-1.66-5.96-6.62-6.98-1.6-.33-3.75-.68-6.23-1.07-6.89-1.12-16.21-2.63-19.88-4.79v-.79c2.14-.47,3.75-2.4,3.75-4.67,0-2.64-2.15-4.78-4.79-4.78-1.43,0-2.77.64-3.69,1.74l1.52,1.25c.54-.65,1.33-1.02,2.17-1.02,1.55,0,2.81,1.26,2.81,2.81s-1.24,2.8-2.78,2.82h-.97v2.56c-3.57,2.21-13.04,3.75-20.02,4.87-2.48.4-4.63.75-6.23,1.07-4.95,1.01-6.45,4.56-6.62,6.98v1.97s67.58,0,67.58,0v-1.97ZM368.96,358.94c1.57-.32,3.7-.66,6.16-1.06,7.45-1.21,16.61-2.69,20.62-5.08,4,2.39,13.17,3.88,20.62,5.08,2.46.4,4.59.74,6.15,1.06,4.05.83,4.88,3.6,5.03,5.05h-63.61c.13-1.44.94-4.21,5.03-5.05Z"/>
            <g>
              <path class="cls-2" d="M676.78,376.68s0,0,0,0c-.03-.53-.89-12.99-23.91-13.05,0,0-16.98-1.36-20.72-28.26,0,0-13.97-1.3-16.38,12.13-.65,3.62-.54,5.68,1.2,10.61,1.71,4.83,1.34,20.65,1.34,20.65h3.78l.02-18.59s13.01,5.6,21.4,18.75c2.01,3.14,23.44,2.28,33.22-.84,0,0,.2-.48.06-1.39Z"/>
              <path class="cls-11" d="M632.14,335.37s.66-.17,2.64,3.39c4.83,8.7,8.91,19.87,23.86,25.18,0,0-7.76,3.03-15.88-3.93-4.99-4.28-11.6-14.43-10.62-24.64Z"/>
              <rect class="cls-11" x="618.3" y="378.64" width="3.8" height="1.47"/>
            </g>
            <g>
              <g>
                <g>
                  <path class="cls-15" d="M515.94,351.7s6.24-19.77,14.05-18.76c3.55.46,9.54,4.07,7.8,12.02-.89,4.06-5.79,7.11-18.99,10.13l-2.86-3.4Z"/>
                  <path class="cls-9" d="M517.8,351.01s6.08-17.9,12.12-14.86c1.58.8,1.63,3.87-3.01,9.13-5.9,6.7-9.11,5.72-9.11,5.72Z"/>
                </g>
                <g>
                  <path class="cls-15" d="M517.03,351.79s-6.04-19.83-13.85-18.9c-3.56.42-9.59,3.96-7.94,11.94.84,4.07,5.71,7.17,18.88,10.33l2.91-3.37Z"/>
                  <path class="cls-9" d="M515.17,351.08s-5.89-17.96-11.97-14.98c-1.59.78-1.66,3.86,2.91,9.16,5.83,6.76,9.05,5.82,9.05,5.82Z"/>
                </g>
              </g>
              <rect class="cls-16" x="489.07" y="358.11" width="55.2" height="24.79"/>
              <rect class="cls-4" x="487.49" y="352.12" width="58.34" height="7.93"/>
            </g>
            <g>
              <path class="cls-2" d="M525.25,360.79l-4.29-2.99h-6.18l-4.37,3.01v17.77h14.84v-17.79ZM517.85,361.38c-.61,0-1.1-.49-1.1-1.1s.49-1.1,1.1-1.1,1.1.49,1.1,1.1-.49,1.1-1.1,1.1Z"/>
              <path class="cls-20" d="M512.94,368.33c0-.44.05-.83.14-1.15.09-.33.23-.6.4-.82.17-.22.38-.38.61-.48.24-.11.5-.16.79-.16s.55.05.79.16c.23.11.44.27.61.48.17.22.3.49.4.82.09.33.14.71.14,1.15s-.05.82-.14,1.15c-.09.33-.23.6-.4.82-.17.22-.38.38-.61.49-.24.11-.5.16-.79.16s-.55-.05-.79-.16c-.23-.11-.44-.27-.61-.49-.17-.22-.3-.49-.4-.82-.09-.33-.14-.71-.14-1.15ZM515.5,368.33c0-.22-.01-.43-.03-.62-.02-.19-.05-.35-.1-.49s-.11-.24-.19-.32c-.08-.08-.18-.12-.3-.12s-.22.04-.3.12-.14.19-.19.32c-.05.14-.08.3-.1.49-.02.19-.03.4-.03.62s.01.43.03.62c.02.19.05.35.1.49.05.14.11.24.19.32.08.08.18.12.3.12s.22-.04.3-.12c.08-.08.14-.19.19-.32.05-.14.08-.3.1-.49.02-.19.03-.4.03-.62ZM521.11,366.26l-5.89,7.89-.79-.6,5.89-7.89.78.6ZM518.74,371.41c0-.44.05-.83.14-1.15.09-.33.23-.6.39-.82.17-.22.38-.38.61-.49.24-.11.5-.16.79-.16s.55.05.78.16c.24.11.44.27.61.49.17.22.3.49.4.82.09.33.14.71.14,1.15s-.05.82-.14,1.15c-.09.33-.23.6-.4.82-.17.22-.38.38-.61.49-.23.11-.5.16-.78.16s-.55-.05-.79-.16c-.24-.11-.44-.27-.61-.49-.17-.22-.3-.49-.39-.82-.1-.33-.14-.71-.14-1.15ZM521.3,371.41c0-.22-.01-.43-.03-.62-.02-.19-.05-.35-.1-.49-.05-.14-.11-.24-.19-.32-.08-.08-.18-.12-.3-.12s-.22.04-.3.12c-.08.08-.14.19-.19.32-.05.14-.08.3-.1.49-.02.19-.03.4-.03.62s0,.43.03.62c.02.19.05.35.1.49.05.14.11.24.19.32.08.08.18.12.3.12s.22-.04.3-.12c.08-.08.14-.19.19-.32.05-.14.08-.3.1-.49.02-.19.03-.4.03-.62Z"/>
              <path class="cls-7" d="M517.82,361.38c-.26,0-.47-.12-.47-.12v-9.73c0-.26.21-.47.47-.47s.47.21.47.47v9.76c-.13.07-.21.09-.47.09Z"/>
            </g>
            <g>
              <path class="cls-7" d="M638.99,363.3l-4.29-2.99h-6.18l-4.38,3.01v17.78h14.84v-17.79ZM631.6,363.89c-.61,0-1.11-.49-1.11-1.1s.5-1.1,1.11-1.1,1.1.49,1.1,1.1-.49,1.1-1.1,1.1Z"/>
              <path class="cls-20" d="M626.69,370.84c0-.44.05-.83.14-1.15.09-.33.23-.6.4-.82.17-.22.38-.38.61-.48.24-.11.5-.16.79-.16s.55.05.79.16c.23.11.44.27.61.48.17.22.3.49.4.82s.14.71.14,1.15-.05.82-.14,1.15c-.09.33-.23.6-.4.82-.17.22-.38.38-.61.49-.24.11-.5.16-.79.16s-.55-.05-.79-.16c-.23-.11-.44-.27-.61-.49-.17-.22-.3-.49-.4-.82-.09-.33-.14-.71-.14-1.15ZM629.25,370.84c0-.22-.01-.43-.03-.62-.02-.19-.05-.35-.1-.49-.05-.14-.11-.24-.19-.32-.08-.08-.18-.12-.3-.12s-.22.04-.3.12c-.08.08-.14.19-.19.32-.05.14-.08.3-.1.49-.02.19-.03.4-.03.62s.01.43.03.62c.02.19.05.35.1.49.05.14.11.24.19.32.08.08.18.12.3.12s.22-.04.3-.12c.08-.08.14-.19.19-.32.05-.14.08-.3.1-.49.02-.19.03-.4.03-.62ZM634.85,368.77l-5.89,7.89-.79-.6,5.89-7.89.78.6ZM632.49,373.92c0-.44.05-.83.14-1.15.09-.33.23-.6.39-.82.17-.22.38-.38.61-.49.24-.11.5-.16.79-.16s.55.05.78.16c.24.11.44.27.61.49s.3.49.4.82c.09.33.14.71.14,1.15s-.05.82-.14,1.15c-.09.33-.23.6-.4.82s-.38.38-.61.49c-.23.11-.5.16-.78.16s-.55-.05-.79-.16c-.24-.11-.44-.27-.61-.49-.17-.22-.3-.49-.39-.82-.1-.33-.14-.71-.14-1.15ZM635.05,373.92c0-.22-.01-.43-.03-.62-.02-.19-.05-.35-.1-.49-.05-.14-.11-.24-.19-.32-.08-.08-.18-.12-.3-.12s-.22.04-.3.12c-.08.08-.14.19-.19.32-.05.14-.08.3-.1.49-.02.19-.03.4-.03.62s0,.43.03.62c.02.19.05.35.1.49.05.14.11.24.19.32.08.08.18.12.3.12s.22-.04.3-.12c.08-.08.14-.19.19-.32.05-.14.08-.3.1-.49.02-.19.03-.4.03-.62Z"/>
              <path class="cls-20" d="M631.57,363.89c-.26,0-.47-.12-.47-.12v-9.73c0-.26.21-.47.47-.47s.46.21.46.47v9.76c-.13.07-.21.09-.46.09Z"/>
            </g>
          </g>
          <g>
            <rect class="cls-20" x="353.36" y="415.05" width="87.58" height="64.31"/>
            <rect class="cls-20" x="473.57" y="415.05" width="87.58" height="64.31"/>
            <rect class="cls-20" x="599.7" y="415.05" width="87.58" height="64.31"/>
            <g>
              <rect class="cls-7" x="409.56" y="427.54" width="13.88" height="16.91" transform="translate(-184.44 485.32) rotate(-51)"/>
              <rect class="cls-7" x="366.36" y="429.05" width="16.9" height="13.89" transform="translate(-190.86 333.07) rotate(-39)"/>
              <rect class="cls-7" x="376.95" y="425.27" width="37.34" height="48.17"/>
              <polygon class="cls-14" points="386.86 425.27 395.85 432.57 404.85 425.27 386.86 425.27"/>
            </g>
            <path class="cls-2" d="M500.31,474.35h33.04c-.5-3.83-.46-11.84,3.39-27.15,3.37-8.27,2.92-25.25,2.92-25.25h-3.5c.66,6.74-.64,13.18-1.13,15.32-1.96-2.51-5-3.89-8.42-4.13-3.48-.24-8.22.35-9.85,4.15-1.63-3.81-6.42-4.33-9.78-4.15-3.76.19-7.06,1.95-8.96,4.88,0,0,0,0,0,0,0,0-2.13-7.81-1.32-16.07h-3.5s0,16.02,3.38,24.28c0,.01,5.05,17.84,3.72,28.12Z"/>
            <g>
              <g>
                <g>
                  <path class="cls-5" d="M641.91,437.59s-7.09-12.99-2.71-16.5c2-1.6,6.82-2.9,10.05,1.93,1.65,2.47.8,6.49-4.18,14.79l-3.16-.21Z"/>
                  <path class="cls-18" d="M642.48,436.29s-6.21-11.98-1.65-13.59c1.19-.42,2.8,1.08,3.21,6.07.53,6.35-1.56,7.53-1.56,7.53Z"/>
                </g>
                <g>
                  <path class="cls-5" d="M643.9,436.2s4.46-14.11,10.03-13.39c2.53.33,6.81,2.9,5.57,8.58-.64,2.9-4.13,5.07-13.55,7.23l-2.04-2.43Z"/>
                  <path class="cls-18" d="M645.24,435.7s4.34-12.78,8.65-10.61c1.13.57,1.16,2.77-2.15,6.52-4.21,4.78-6.51,4.09-6.51,4.09Z"/>
                </g>
                <g>
                  <path class="cls-5" d="M643.05,436.59s-4.31-14.16-9.89-13.49c-2.54.3-6.84,2.83-5.66,8.52.6,2.9,4.07,5.12,13.47,7.37l2.07-2.41Z"/>
                  <path class="cls-18" d="M641.72,436.09s-4.21-12.82-8.54-10.7c-1.14.56-1.19,2.75,2.08,6.54,4.16,4.83,6.47,4.16,6.47,4.16Z"/>
                </g>
              </g>
              <rect class="cls-2" x="626.35" y="439.76" width="33.85" height="32.13"/>
              <rect class="cls-7" x="624.88" y="436.86" width="36.8" height="5.81"/>
            </g>
            <g>
              <path class="cls-2" d="M412.27,435l-4.29-2.99h-6.18l-4.38,3.01v17.77h14.84v-17.79ZM404.88,435.59c-.61,0-1.1-.49-1.1-1.1s.49-1.11,1.1-1.11,1.1.49,1.1,1.11-.49,1.1-1.1,1.1Z"/>
              <path class="cls-20" d="M399.96,442.54c0-.44.05-.83.14-1.15.1-.33.23-.6.4-.82.17-.22.38-.38.61-.48.24-.11.5-.16.79-.16s.55.05.78.16c.24.11.44.27.61.48.17.22.3.49.4.82.09.33.14.71.14,1.15s-.05.82-.14,1.15c-.09.33-.23.6-.4.82-.17.22-.38.38-.61.49-.23.11-.5.16-.78.16s-.55-.05-.79-.16c-.24-.11-.44-.27-.61-.49-.17-.22-.3-.49-.4-.82-.09-.33-.14-.71-.14-1.15ZM402.52,442.54c0-.22-.01-.43-.03-.62-.02-.19-.05-.35-.1-.49-.05-.14-.11-.24-.19-.32s-.18-.12-.3-.12-.22.04-.3.12-.14.19-.19.32c-.05.14-.09.3-.11.49-.02.19-.03.4-.03.62s0,.43.03.62c.02.19.05.35.11.49.05.14.11.24.19.32.08.08.18.12.3.12s.22-.04.3-.12c.08-.08.14-.19.19-.32.05-.14.08-.3.1-.49.02-.19.03-.4.03-.62ZM408.13,440.47l-5.89,7.89-.79-.6,5.89-7.89.79.6ZM405.77,445.62c0-.44.05-.83.14-1.15.09-.33.23-.6.4-.82s.38-.38.61-.49c.23-.11.5-.16.78-.16s.55.05.79.16c.24.11.44.27.61.49.17.22.3.49.39.82.1.33.14.71.14,1.15s-.05.82-.14,1.15c-.09.33-.23.6-.39.82-.17.22-.38.38-.61.49-.24.11-.5.16-.79.16s-.55-.05-.78-.16c-.24-.11-.44-.27-.61-.49s-.3-.49-.4-.82c-.09-.33-.14-.71-.14-1.15ZM408.32,445.62c0-.22,0-.43-.03-.62-.02-.19-.05-.35-.1-.49-.05-.14-.11-.24-.19-.32-.08-.08-.18-.12-.3-.12s-.22.04-.3.12c-.08.08-.14.19-.19.32-.05.14-.08.3-.1.49-.02.19-.03.4-.03.62s.01.43.03.62c.02.19.05.35.1.49.05.14.11.24.19.32.08.08.18.12.3.12s.22-.04.3-.12c.08-.08.14-.19.19-.32.05-.14.08-.3.1-.49.02-.19.03-.4.03-.62Z"/>
              <path class="cls-20" d="M404.85,435.59c-.26,0-.46-.12-.46-.12v-9.73c0-.26.21-.47.46-.47s.47.21.47.47v9.76c-.13.07-.21.09-.47.09Z"/>
            </g>
            <g>
              <path class="cls-7" d="M542.44,447.47l-4.77-3.32h-6.87l-4.87,3.35v19.77h16.51v-19.8ZM534.21,448.13c-.68,0-1.23-.55-1.23-1.23s.55-1.23,1.23-1.23,1.23.55,1.23,1.23-.55,1.23-1.23,1.23Z"/>
              <path class="cls-20" d="M528.75,455.87c0-.49.05-.92.16-1.28.11-.36.25-.67.44-.91s.42-.42.68-.54c.27-.12.55-.18.88-.18s.61.06.87.18c.26.12.49.3.68.54s.34.55.44.91c.11.36.16.79.16,1.28s-.05.91-.16,1.28c-.11.36-.25.67-.44.91s-.42.42-.68.54c-.27.12-.55.18-.87.18s-.61-.06-.88-.18c-.26-.12-.49-.3-.68-.54s-.34-.54-.44-.91c-.11-.36-.16-.79-.16-1.28ZM531.59,455.87c0-.25,0-.48-.03-.69-.02-.21-.06-.39-.11-.54-.05-.15-.13-.27-.21-.36-.09-.09-.2-.13-.33-.13s-.25.04-.33.13c-.09.09-.16.21-.21.36-.05.15-.09.33-.12.54-.02.21-.03.44-.03.69s.01.47.03.69c.02.21.06.4.12.55.05.15.12.27.21.36.09.09.2.13.33.13s.24-.04.33-.13c.09-.09.16-.21.21-.36.05-.15.09-.33.11-.55.02-.21.03-.44.03-.69ZM537.84,453.56l-6.55,8.77-.87-.67,6.55-8.78.87.67ZM535.21,459.29c0-.49.05-.92.16-1.28.11-.36.25-.67.45-.91.19-.24.41-.42.68-.54.26-.12.55-.18.87-.18s.61.06.87.18c.27.12.49.3.68.54.19.24.34.55.45.91.11.36.16.79.16,1.28s-.05.91-.16,1.28c-.11.36-.25.67-.45.91-.19.24-.41.42-.68.54-.26.12-.55.18-.87.18s-.61-.06-.87-.18c-.27-.12-.49-.3-.68-.54-.19-.24-.34-.54-.45-.91-.11-.36-.16-.79-.16-1.28ZM538.05,459.29c0-.25-.01-.48-.04-.69-.02-.21-.06-.39-.11-.54-.05-.15-.13-.27-.21-.36-.09-.09-.2-.13-.33-.13s-.25.04-.33.13c-.09.09-.16.21-.21.36-.05.15-.09.33-.11.54-.02.21-.04.44-.04.69s.01.47.04.69c.02.21.06.39.11.55.05.15.13.27.21.36.09.09.2.13.33.13s.25-.04.33-.13c.09-.09.16-.21.21-.36.05-.15.09-.33.11-.55.02-.21.04-.44.04-.69Z"/>
              <path class="cls-20" d="M534.18,448.13c-.29,0-.52-.13-.52-.13v-10.82c0-.29.23-.52.52-.52s.52.23.52.52v10.85c-.15.08-.23.1-.52.1Z"/>
            </g>
            <g>
              <path class="cls-7" d="M654.44,445.19l-3.68-2.56h-5.29l-3.75,2.58v15.24h12.72v-15.25ZM648.1,445.7c-.52,0-.95-.42-.95-.95s.42-.95.95-.95.95.42.95.95-.42.95-.95.95Z"/>
              <path class="cls-20" d="M643.89,451.66c0-.38.04-.71.12-.99.08-.28.2-.51.34-.7.14-.19.32-.33.52-.42.2-.09.43-.14.67-.14s.47.04.67.14c.2.09.38.23.52.42.15.19.26.42.34.7.08.28.13.61.13.99s-.04.7-.13.98c-.08.28-.19.52-.34.7-.14.19-.32.33-.52.42s-.43.14-.67.14-.47-.05-.67-.14c-.2-.09-.38-.23-.52-.42-.15-.19-.26-.42-.34-.7-.08-.28-.12-.61-.12-.98ZM646.09,451.66c0-.19,0-.37-.02-.53-.02-.16-.05-.3-.09-.42-.04-.12-.09-.21-.16-.28-.07-.07-.15-.1-.25-.1s-.19.03-.26.1c-.07.07-.12.16-.16.28-.04.12-.07.26-.09.42-.02.16-.02.34-.02.53s0,.37.02.53c.02.16.05.3.09.42.04.12.09.21.16.28.07.07.15.1.26.1s.19-.03.25-.1c.07-.07.12-.16.16-.28.04-.12.07-.26.09-.42.02-.16.02-.34.02-.53ZM650.89,449.88l-5.04,6.76-.67-.52,5.05-6.76.67.52ZM648.87,454.3c0-.38.04-.71.12-.99.08-.28.2-.51.34-.7.15-.19.32-.33.53-.42.2-.09.43-.14.67-.14s.46.05.67.14c.2.09.38.23.52.42.14.19.26.42.34.7.08.28.12.61.12.99s-.04.7-.12.98c-.08.28-.2.51-.34.7-.15.19-.32.33-.52.42-.21.09-.43.14-.67.14s-.47-.05-.67-.14c-.2-.09-.38-.23-.53-.42-.14-.19-.26-.42-.34-.7-.08-.28-.12-.61-.12-.98ZM651.06,454.3c0-.19,0-.37-.03-.53-.02-.16-.05-.3-.09-.42-.04-.12-.1-.21-.16-.28-.07-.07-.15-.1-.25-.1s-.19.03-.26.1-.12.16-.16.28c-.04.12-.07.26-.09.42-.02.16-.03.34-.03.53s0,.37.03.53c.02.16.05.3.09.42.04.12.1.21.16.28.07.07.15.1.26.1s.19-.03.25-.1c.07-.07.12-.16.16-.28.04-.12.07-.26.09-.42.02-.16.03-.34.03-.53Z"/>
              <path class="cls-20" d="M648.08,445.7c-.22,0-.4-.1-.4-.1v-8.34c0-.22.18-.4.4-.4s.4.18.4.4v8.36c-.11.06-.18.08-.4.08Z"/>
            </g>
          </g>
        </g>
        <g>
          <g>
            <path class="cls-2" d="M335.94,685.15c5.69-1.79,3.8-7.96,1.76-7.98-1.51-.02-3.27-.05-5.44-.05-3.2,0-5.47-1.48-5.26-1.48h-8.95c-.22.18-.42.52-.54,1.13l-.04,8.38h18.46Z"/>
            <path class="cls-4" d="M311.4,553.41c.29,14.5,5.46,111.37,5.46,122.23h10.95s5.74-106,6.15-122.23h-22.56Z"/>
          </g>
          <g>
            <path class="cls-2" d="M312.12,685.15c5.7-1.79,3.81-7.96,1.75-7.98-1.5-.02-3.26-.05-5.43-.05-3.19,0-5.46-1.48-5.27-1.48h-8.94c-.22.18-.43.52-.54,1.13l-.04,8.38h18.45Z"/>
            <path class="cls-4" d="M290.81,553.41c.08,12.19,2.3,111.21,2.3,122.23h11.33s8.38-105.61,9.81-122.12l-23.44-.11Z"/>
          </g>
          <path class="cls-2" d="M336.39,553.88c0-.16,1.57-62.78-7.71-86.05-1.57-3.91-3.39-7.83-7.08-8.94-3.25-.98-7.01-2.21-9.15-2.21-4.76,0-8.06,3.81-14.04,12.13-10.11,14.03-9.85,61.11-9.82,85.08h47.81Z"/>
          <path class="cls-10" d="M312.55,444.88v12.2c0,2.34,4.31,4.24,6.53,4.24,1.52,0,2.38-.82,2.38-4.24v-9.97l-8.91-2.23Z"/>
          <path class="cls-10" d="M329.77,439.14c-.76-1.48-1.09-3.14-1.23-4.65.01-.09.02-.15.02-.15.22-1.98,1.74-4.97,1.21-6.4-1.35-3.71-6.68-5.77-11.86-6.33-6.55-.71-11.48,3.47-12.5,12.85-.53,4.85,2.5,10.09,5.94,11.09,2.59.75,7.6,2.42,8.08,2.58,3.18,1.04,4.77,1.21,6.06-1.04,1.05-1.79,1.15-1.95,2.13-4.14.5-1.11.87-2.06,1.58-1.98,1.71.18.77-1.47.57-1.83Z"/>
          <path class="cls-19" d="M311.98,421.72c-12.17,4.89-8.5,23.05-.21,23.95.96.11.15-1.37.32-2.92.07-.67.35-.38-.82-2-2.13-2.95-.42-4.64.23-4.57,1.22.13,1.14,2.44,3.9-2.07,1.79-2.92,3.12-3.71,7.61-3.29,2.82.26,5.27-.57,6.67-1.48,2.03-1.31-5.19-12.65-17.69-7.62Z"/>
          <polygon class="cls-4" points="369.75 494.95 371.97 495.65 377.38 478.44 375.15 477.75 369.75 494.95"/>
          <g>
            <path class="cls-10" d="M306,463.8c2.53-1.6,5.89-.84,7.49,1.69l23.94,39.97,25.78-10.24c1.64-.57,3.48.17,4.26,1.77.85,1.73-.41,1.78-2.14,2.62l-27.8,15.89c-2.29,1.11-5.12.35-6.51-1.85l-.18-.28-26.55-42.07c-1.6-2.54-.84-5.9,1.7-7.5Z"/>
            <path class="cls-23" d="M309.21,483.29l-5.66-11.79c-1.73-2.99-.71-6.82,2.29-8.55,2.99-1.73,6.82-.71,8.55,2.29l7.69,11.27-12.86,6.79Z"/>
          </g>
          <path class="cls-10" d="M363.43,494.88l-1.05.58,2.46,4.42,1.07-.59c1.45.34,4.92-.84,6.47-2.19,2.44-2.12,3.1-5.47,1.77-6.65-1.35-1.2-3.46-.19-5.73,1.63-.37.31-.81.35-.55-.29.54-1.29.51-2.05.1-2.22-.62-.25-3.7,2.57-4.54,5.31Z"/>
          <path class="cls-19" d="M307.79,424.47s-7.79-4.74-15.13,1.87c-8.08,7.28-3.81,19.26.57,23.82,5.36,5.57,3.78,17.1,1.38,21.11-2.4,4.02,4.24,6.31,5.85,1.26,1.62-5.04,4.37-18.85,2.91-22.75-1.46-3.9-4.83-24.2,3.02-23.35l1.4-1.96Z"/>
        </g>
        <g>
          <path class="cls-2" d="M370.25,217.18c-6.54-18.71,2.19-44.6-3.92-65.93-1.02-3.57-2.99-6.9-6.24-7.89-2.86-.86-6.18-1.95-8.07-1.95-4.19,0-7.11,3.37-12.38,10.69-7.78,10.8-8.6,43.01-8.67,65.08h39.28Z"/>
          <path class="cls-10" d="M352.11,131.01v10.76c0,2.07,3.8,3.74,5.76,3.74,1.34,0,2.1-.73,2.1-3.74v-8.79l-7.85-1.97Z"/>
          <path class="cls-10" d="M367.3,125.94c-.67-1.3-.97-2.77-1.09-4.1,0-.08.01-.13.01-.13.19-1.74,1.53-4.38,1.07-5.65-1.19-3.27-5.9-5.09-10.47-5.58-5.78-.63-10.13,3.06-11.02,11.33-.46,4.28,2.2,8.9,5.24,9.79,2.29.66,6.71,2.14,7.12,2.27,2.81.91,4.22,1.06,5.35-.92.93-1.58,1.01-1.72,1.87-3.65.45-.98.77-1.82,1.4-1.75,1.51.16.67-1.29.51-1.61Z"/>
          <rect class="cls-4" x="397.97" y="166.86" width="15.9" height="2.06" transform="translate(123.91 504.68) rotate(-72.53)"/>
          <g>
            <path class="cls-10" d="M346.33,147.7c2.23-1.41,5.2-.75,6.61,1.49l21.11,35.25,22.74-9.04c1.45-.5,3.07.15,3.76,1.56.75,1.52-.36,1.57-1.89,2.31l-24.52,14.01c-2.01.98-4.52.31-5.74-1.63l-.15-.24-23.43-37.1c-1.41-2.24-.74-5.2,1.5-6.61Z"/>
            <path class="cls-2" d="M349.16,164.88l-4.99-10.4c-1.52-2.64-.62-6.01,2.02-7.54,2.64-1.53,6.02-.63,7.54,2.01l6.78,9.94-11.34,5.99Z"/>
          </g>
          <path class="cls-10" d="M396.98,175.1l-.92.51,2.17,3.9.93-.52c1.28.3,4.34-.74,5.71-1.93,2.14-1.86,2.72-4.82,1.56-5.87-1.19-1.06-3.05-.17-5.05,1.44-.32.27-.72.31-.48-.25.48-1.14.45-1.81.09-1.96-.55-.22-3.26,2.27-4.01,4.68Z"/>
          <polygon class="cls-24" points="368.21 216.21 454.23 230.44 454.23 237.91 356.67 238.21 368.21 216.21"/>
          <path class="cls-19" d="M435.67,238.21c4.63-1.46,3.11-6.48,1.44-6.5-1.23-.01-2.67-.04-4.43-.04-2.59,0-4.44-1.21-4.28-1.21h-7.29c-.18.14-.35.43-.44.92l-.04,6.83h15.03Z"/>
          <path class="cls-19" d="M461.98,223.18c-1.46-4.64-6.48-3.11-6.5-1.44-.02,1.23-.04,2.67-.04,4.43,0,2.59-1.2,4.45-1.2,4.28v7.28c.14.18.43.35.91.44l6.83.04v-15.03Z"/>
          <path class="cls-8" d="M430.45,230.95c-3.95-13.03-10.69-46.91-16.31-48.29-13.55-3.34-44.39,31.63-44.39,31.63l-38.53.38s-3.54,23.27,5.79,23.27c0,0,24.08,1.1,33.76-.29,9.22-1.32,37.73-34.29,37.73-34.29l11.6,27.64,10.35-.06Z"/>
          <path class="cls-19" d="M337.87,159.73c1.48,3.01,12.93,2.46,14.99-.19,5.79-7.45-1.19-11.63.87-15.45,2.94-5.44,3.74-14.66,1.11-20.79-.52-.93-.96-2.11-.27-2.33,1-.33,1.66.42,1.89,1.47.04.17.05.54.58.52.19,0,.43,0,.66,0,.54.02.51-.31.72-1.39.11-.48,1.03-5.36,3.2-5.32,2.48.04,5,.87,5.6,1.08,1.7.51,1.69-3.92.29-4.69-2.47-1.37-4.06-3.63-10.14-4.22-2.89-.28-5.52.52-7.44,2.09v-.02s-.02.02-.03.05c-1.77,1.46-4.8,7.09-5.13,11.21-.69,8.9-4.76,10.75-5.23,20.08-.23,4.37-7.05,7.04-1.67,17.89Z"/>
        </g>
        <g>
          <path class="cls-16" d="M619.41,152.3c0-5.29-1.51-7.05-10.4-7.05h-21c-3.88,0-5.69,1.5-6.95,6.7l-1.51,67.18h39.85v-66.83Z"/>
          <path class="cls-21" d="M581.09,219.13v7.93c0,3.7,2.99,6.69,6.69,6.69h22.94c3.7,0,6.69-3,6.69-6.69v-7.93h-36.32Z"/>
          <path class="cls-10" d="M612.1,126.84c0,6.56-5.63,11.06-11.4,11.06s-11.4-4.65-11.4-11.31v-5.95c0-6.26,5.11-9.14,11.4-9.14h0c6.31,0,11.4,2.88,11.4,9.14v6.2Z"/>
          <path class="cls-10" d="M605.11,146.65s-.92,2.33-4.47,2.33c-4.1,0-4.47-2.33-4.47-2.33v-14.14h8.94v14.14Z"/>
          <path class="cls-19" d="M600.58,108.74c-6.04,0-9.37,4.84-9.37,4.84-.92,1.69-6.17.12-6.17.12.12,2.63.56,5.42,3.85,6.93v7.3s0,0,.03-.01c.33,6.16,5.59,11.07,12.05,11.07s11.64-4.82,12.05-10.91c.03-.02.04-.02.04-.02v-7.85c0-6.42-6.43-11.44-12.48-11.44ZM601.03,136.51c-2.49,0-6.22-1.11-6.22-2.5,0-.74,3.33-2.63,6.17-2.63,3.8,0,6.37,1.95,6.37,2.79,0,1.16-2.87,2.34-6.33,2.34ZM609.28,130.73c-.02.46-.68,1.09-1.49.58-2.77-1.76-8.28-3.63-13.94.15-.92.62-1.78-.45-1.98-1.11-.29-.93-.44-1.94-.44-3.03,0-1.97-.03-5.42-.03-5.42h-.03c.01-.16.02-.33.03-.5,1.18.23,2.04.36,3.69.36,4.97,0,9.53-4.89,12.06-4.06,1.21.4,2.13,1.89,2.13,3.14v6.64c0,1.01,0,3.14,0,3.25Z"/>
          <g>
            <g>
              <path class="cls-10" d="M632.13,185.82l-10.41-34.99c-1.07-3.42-4.55-4.45-7.08-3.74-2.52.71-4.89,3.84-3.88,7.05l11.63,31.68h9.73Z"/>
              <path class="cls-17" d="M625.98,162.27l-4.01-12.2c-1.06-3.23-4.54-4.98-7.76-3.92-3.22,1.06-4.97,4.54-3.92,7.76l4.01,12.2,11.68-3.84Z"/>
            </g>
            <path class="cls-10" d="M622.4,185.82l-21.69,11.09,1.85,7.19s32.04-8.9,29.58-18.28l-5.06-.56-4.68.56Z"/>
          </g>
          <g>
            <g>
              <path class="cls-10" d="M567.62,185.82l10.41-34.99c1.07-3.42,4.55-4.45,7.08-3.74,2.52.71,4.89,3.84,3.88,7.05l-11.63,31.68h-9.74Z"/>
              <path class="cls-17" d="M573.78,162.27l4.01-12.2c1.06-3.23,4.53-4.98,7.76-3.92,3.22,1.06,4.98,4.54,3.92,7.76l-4.02,12.2-11.68-3.84Z"/>
            </g>
            <path class="cls-10" d="M577.36,185.82l21.69,11.09-1.85,7.19s-32.04-8.9-29.58-18.28l5.06-.56,4.68.56Z"/>
          </g>
          <g>
            <path class="cls-19" d="M578.85,183.62h42.22c1.13,0,2.06.92,2.06,2.06v31.29c0,1.13-.92,2.05-2.05,2.05h-42.22c-1.13,0-2.06-.92-2.06-2.06v-31.29c0-1.13.92-2.05,2.05-2.05Z"/>
            <path class="cls-22" d="M575.2,219.01h50.42c.91,0,1.64.74,1.64,1.64v1.93c0,.91-.74,1.65-1.65,1.65h-50.42c-.91,0-1.64-.74-1.64-1.64v-1.93c0-.91.74-1.64,1.64-1.64Z"/>
          </g>
          <g>
            <path class="cls-16" d="M607.44,228.3s5.73.39,7.64.38c6.23-.03,9.93-.17,9.93-.17,2.67,0,4.8,1.95,4.8,4.63s-2.17,4.85-4.85,4.85h-17.52v-9.69Z"/>
            <path class="cls-4" d="M612.61,237.99l2.08-9.69-41.38-17.97c-4.04-1.26-9.86-3.6-13.35,3.1-1.96,3.74-2.59,9.88,5.34,12.36l35.99,12.2h11.32Z"/>
          </g>
          <g>
            <path class="cls-17" d="M585.74,229.01s-13.13-.31-17.52-.71c-2.66-.24-4.84,2.16-4.84,4.84s2.17,4.85,4.84,4.85h17.52v-8.98Z"/>
            <path class="cls-4" d="M628.71,220.84l-45.49,6.82v10.33h48.52c8.3,0,9.53-6.05,8.78-10.21-1.34-7.43-7.59-6.94-11.82-6.94Z"/>
          </g>
        </g>
        <g>
          <path class="cls-2" d="M703.1,691.62c-5.67-1.78-3.79-7.91-1.76-7.94,1.5-.02,3.26-.05,5.41-.05,3.17,0,5.45-1.47,5.23-1.47h8.91c.21.18.41.52.53,1.12l.03,8.34h-18.35Z"/>
          <path class="cls-10" d="M702.84,559.56h23.69c-3.47,9.78-5.58,111.5-5.58,122.6h-8.96s-9.14-110.61-9.14-122.6Z"/>
          <path class="cls-2" d="M724.06,691.62c-5.67-1.78-3.8-7.91-1.76-7.94,1.49-.02,3.25-.05,5.4-.05,3.17,0,5.44-1.47,5.24-1.47h8.89c.22.18.43.52.54,1.12l.04,8.34h-18.35Z"/>
          <path class="cls-10" d="M723.78,559.56h23.69c0,10.02-5.58,111.5-5.58,122.6h-8.96s-3.62-108.95-9.15-122.6Z"/>
          <path class="cls-4" d="M703.71,628.29c-2.36-29.99-.87-62.53-.87-68.73h23.69c-1.26,7.87-1.99,36.02-1.6,68.73h-21.21Z"/>
          <path class="cls-4" d="M727.03,628.29c-2.13-29.99-.5-56.63-3.24-68.73h23.69c0,5.48,1.1,37.76,0,68.2l-20.45.53Z"/>
          <path class="cls-2" d="M701.78,561.14c2.24-31.58,2.06-59.37,9.99-79.29,1.56-3.88,3.52-7.27,7.19-8.38,3.23-.98,4.53-.83,8.64-2.71,0,0,5.24-.88,11.15,7.36,8.07,11.26,10.9,40.43,10.22,83.01h-47.19Z"/>
          <rect class="cls-4" x="663.03" y="496.74" width="2.43" height="18.78" transform="translate(-120.95 221.78) rotate(-17.4)"/>
          <g>
            <path class="cls-10" d="M734.64,482.28c-2.64-1.67-6.14-.88-7.82,1.76l-24.94,41.65-26.87-10.67c-1.71-.59-3.62.17-4.44,1.84-.88,1.8.43,1.85,2.23,2.73l28.97,16.55c2.38,1.15,5.33.37,6.77-1.93l.19-.29,27.67-43.83c1.67-2.65.88-6.14-1.77-7.81Z"/>
            <path class="cls-23" d="M731.29,502.58l5.9-12.29c1.8-3.12.74-7.1-2.39-8.91-3.11-1.8-7.11-.74-8.91,2.38l-8.01,11.74,13.4,7.07Z"/>
          </g>
          <path class="cls-10" d="M728.28,459.73v12.27c0,2.37-4.61,4.3-6.98,4.3-1.62,0-2.54-.84-2.54-4.3v-12.27h9.51Z"/>
          <path class="cls-10" d="M709.64,453.74c.75-1.59,1.07-3.36,1.17-4.97-.01-.09-.02-.16-.02-.16-.28-2.09-1.98-5.22-1.45-6.75,1.32-3.96,6.93-6.3,12.39-7.03,6.94-.94,12.28,3.36,13.62,13.28.69,5.14-2.39,10.77-6,11.92-2.74.87-8,2.78-8.51,2.96-3.34,1.19-5.02,1.41-6.46-.94-1.15-1.87-1.26-2.04-2.36-4.33-.57-1.16-.99-2.16-1.73-2.06-1.8.24-.85-1.53-.65-1.92Z"/>
          <path class="cls-19" d="M714.72,433.92c3.15-1.29,10.33-3.43,16.23,1.36,8.93,7.24,6.44,18.91,4.4,22.12-1.82,2.87-6.31,3.21-6.37,2.74-.14-1.03-.2-1.45-.42-3.09-.09-.71-.38-.38.81-2.14,2.19-3.2.34-4.95-.36-4.85-1.29.17-1.15,2.63-4.21-2.09-1.98-3.05-3.42-3.86-8.17-3.29-3,.36-5.42-.92-7.13-1.39-7.65-2.09-.31-7.08,5.21-9.37Z"/>
          <path class="cls-10" d="M674.8,514.66l1.1.61-2.57,4.61-1.11-.61c-1.51.36-5.12-.88-6.74-2.29-2.54-2.2-3.22-5.7-1.85-6.93,1.4-1.25,3.6-.2,5.97,1.7.38.32.85.37.57-.3-.57-1.34-.53-2.14-.1-2.31.65-.26,3.85,2.68,4.73,5.53Z"/>
        </g>
        <g>
          <g>
            <g>
              <rect class="cls-6" x="244.12" y="469.95" width="2.72" height="7.03"/>
              <rect class="cls-6" x="230.23" y="469.95" width="2.73" height="7.03"/>
              <polygon class="cls-7" points="230.23 469.95 246.84 469.95 243.85 467.18 232.77 467.18 230.23 469.95"/>
            </g>
            <polygon class="cls-7" points="217.71 512.89 259.55 512.89 255.82 475.87 221.45 475.87 217.71 512.89"/>
            <polygon class="cls-6" points="215.9 518.19 261.69 518.19 259.55 512.89 217.71 512.89 215.9 518.19"/>
          </g>
          <g>
            <path class="cls-10" d="M216.46,347.18v12.55c0,2.43-4.71,4.4-7.14,4.4-1.66,0-2.6-.85-2.6-4.4v-12.55h9.73Z"/>
            <path class="cls-10" d="M198.07,338.78c.94-1.45,1.49-3.14,1.8-4.7v-.16c0-2.08-1.24-5.36-.52-6.79,1.82-3.7,7.6-5.24,13.03-5.24,6.91,0,11.56,4.91,11.56,14.77,0,5.11-3.76,10.21-7.43,10.86-2.79.49-8.19,1.66-8.71,1.77-3.42.72-5.09.71-6.19-1.77-.87-1.98-.96-2.16-1.74-4.54-.4-1.21-.67-2.25-1.41-2.25-1.79,0-.63-1.61-.38-1.96Z"/>
            <path class="cls-19" d="M204.66,319.87c5.48-1.34,12.02-2.94,17.16,2.5,9.21,9.75,4.52,20.69,2.1,23.56-2.16,2.57-7.8,2.13-7.8,1.66v-3.08c0-.7-.32-.43,1.07-1.99,2.56-2.84.98-4.79.29-4.79-1.28,0-1.15,2.09-3.53-2.93-1.53-3.24-2.83-4.23-7.55-4.29-2.97-.04-5.65-.97-7.09-1.97-2.56-1.78-2.86-8.88-2.86-8.88,1.47,1.52,4.69,1.06,8.2.2Z"/>
            <path class="cls-10" d="M155.3,435.86l1.11-.62,2.63,4.71-1.14.63c-.51,1.51-3.53,3.98-5.62,4.63-3.29,1.03-6.7-.27-7.02-2.13-.33-1.9,1.77-3.24,4.7-4.28.48-.16.78-.54.04-.65-1.47-.23-2.14-.7-2.06-1.16.12-.7,4.4-1.9,7.36-1.13Z"/>
            <path class="cls-10" d="M232.55,460.68l-.29-1.24,5.26-1.22.3,1.26c1.31.91,2.84,4.49,2.89,6.68.07,3.44-2.12,6.36-3.99,6.16-1.92-.21-2.62-2.6-2.81-5.7-.02-.51-.3-.9-.61-.22-.63,1.35-1.27,1.87-1.69,1.66-.64-.31-.61-4.76.96-7.38Z"/>
            <path class="cls-20" d="M234.37,379.56l4.42,79.23-7.28,2.17s-3.95-58.82,2.86-81.4Z"/>
            <path class="cls-20" d="M246.41,577.58c.99-1.09,2.31-2.54,3.58-3.94,2.01-2.23,2.31-5.4,2.31-5.4l5.77-5.61s1-.38,1.88.5c1.76,1.74,5.76,5.23,5.76,5.23,0,0-8.8,9.74-9.74,10.77-6.66,7.34-11.16.2-9.57-1.55Z"/>
            <path class="cls-4" d="M233.43,521.63c-1.64-4.13-2.89-73.79-2.89-73.79h-21.91s-.17,50.3,10.44,78.11c1.77,4.66,29.48,38.61,33.23,42.29l5.82-5.63c-5.66-6.2-21.41-32.75-24.69-40.99Z"/>
            <path class="cls-20" d="M189.27,587.64c-5.18-1.58-3.46-7.03-1.6-7.05,1.37-.02,2.97-.04,4.93-.04,2.68,0,3.14-1.2,3.34-1.31h9.6c.19.16.38.47.49,1l.03,7.41h-16.79Z"/>
            <path class="cls-4" d="M188.87,447.85h22.34c0,10.39-8.04,70.2-8.04,75.36,0,7.21,2.35,44.52,2.35,56.03h-9.59s-9.78-50.65-9.78-57.36c0-9.91,2.71-61.59,2.71-74.03Z"/>
            <path class="cls-20" d="M191.51,374.58c2.11-13.64,12.28-14.72,16.15-14.72h8.62c13.22,0,18.38,16.3,18.38,22.76,0,17.09-.04,65.99-.04,65.99l-49.87-.02s3.92-55.64,6.76-74Z"/>
            <path class="cls-20" d="M154.85,433.72c33.96-16.52,37.02-61.06,37.05-61.48.29-3.61,3.43-6.31,7.07-6.03,3.63.28,6.33,3.45,6.04,7.07-.16,2.01-5.45,49.11-46.1,68.89l-4.06-8.44Z"/>
          </g>
        </g>
        <g>
          <g>
            <g>
              <rect class="cls-6" x="787.59" y="482.47" width="2.25" height="5.82"/>
              <rect class="cls-6" x="799.08" y="482.47" width="2.25" height="5.82"/>
              <polygon class="cls-7" points="801.33 482.47 787.59 482.47 790.06 480.18 799.22 480.18 801.33 482.47"/>
            </g>
            <polygon class="cls-2" points="811.68 517.99 777.07 517.99 780.16 487.36 808.6 487.36 811.68 517.99"/>
            <polygon class="cls-25" points="813.18 522.37 775.3 522.37 777.07 517.99 811.68 517.99 813.18 522.37"/>
          </g>
          <g>
            <path class="cls-10" d="M819.73,360.72v11.41c0,2.19,4.03,3.96,6.1,3.96,1.42,0,2.23-.77,2.23-3.96v-9.32l-8.33-2.09Z"/>
            <path class="cls-10" d="M836.11,353.87c-.85-1.3-1.34-2.81-1.61-4.2v-.14c0-1.86,1.11-4.79.47-6.07-1.63-3.31-6.8-4.68-11.67-4.68-6.16,0-10.32,4.39-10.32,13.21,0,4.57,3.35,9.13,6.65,9.72,2.5.44,7.32,1.48,7.78,1.58,3.07.64,4.56.64,5.54-1.58.79-1.77.87-1.93,1.56-4.06.35-1.08.6-2.01,1.26-2.01,1.6,0,.56-1.44.35-1.76Z"/>
            <path class="cls-10" d="M864.89,471.81c-.6-1.16-16.51-29.13-19.71-38.57-13.94-41.04-19.37-49.41-19.4-49.52-1.19-3.07.33-6.53,3.41-7.72,3.08-1.19,6.54.33,7.73,3.41.16.41,4.56,11.07,16.44,52.13,2.09,7.22,12.61,30,16.61,37.66l-5.07,2.61Z"/>
            <path class="cls-1" d="M840.15,404.51c1.86-.98,3.73-1.9,5.65-2.75-5.8-16.92-8.78-22.07-8.89-22.35-1.2-3.08-4.65-4.6-7.73-3.41-3.08,1.19-4.6,4.65-3.41,7.72.02.08,2.06,5.37,8.32,23.42,2.12-.62,4.1-1.6,6.05-2.63Z"/>
            <path class="cls-4" d="M857.53,506.01c-.13-1.46-10.88-40.24-14.56-51.48h-37.82s5.33,55.23,5.17,56.03c-.2,1.11-22.72,52.1-28.51,58.44l6.04,7.18c3.83-3.76,10.25-7.89,13.08-12.24,2.82-4.36,23.69-35.41,26.93-49.01,2.66-11.12-1.21-45.72-1.21-45.72,3.42,5.71,4.61,10.88,6.69,18.01,1.25,4.3,6.83,24.38,6.98,25.22.07.42,2.66,58.52,2.66,68.62h10.3c1.14-11.29,4.38-72.75,4.38-72.75-.02-.82-.07-1.57-.13-2.3Z"/>
            <path class="cls-1" d="M849.18,468.59c-5.01-23.67-8.86-27.34-8.86-38.33v-11.5c0-4.57,2.7-15.22,2.74-19.69.11-11.45-8.02-25.04-14.59-25.04h-9.39c-9.1,0-10.64,14.83-10.64,20.69,0,7.09-2.03,19.86-2.03,33.91s-2.2,22.27-3.57,39.97h46.34Z"/>
            <path class="cls-10" d="M816.18,374.5c-14.19,0-21.21,19.52-24.57,58.7-.82,9.61.46,36.77.43,38.35h5.71c-.11-2.77,1.62-29.54,2.37-38.35,3.33-38.81,13.25-46.76,16.06-46.76,3.29,0,5.97-2.67,5.97-5.97s-2.68-5.98-5.97-5.98Z"/>
            <path class="cls-1" d="M816.18,374.5c-9.84,0-17.38,9.16-21.94,27.81l12.51,4.31c3.67-15.49,7.48-20.18,9.44-20.18,3.29,0,5.97-2.67,5.97-5.97s-2.68-5.98-5.97-5.98Z"/>
            <path class="cls-19" d="M831.64,339.04c-1.91-1.24-7.75-5.5-15.08-1.21-6.4,3.75-5.88,7.31-10.21,14.42-3.07,5.04-2.97,13.77-.07,23.86,1.29,4.48,3.3,9.94,1.63,18.57-1.67,8.62-4.18,14.36-.71,17.82,3.45,3.46,3.91,5.97,3.34,8.96-2.67,13.98,18.89,11.26,13.97.6-2.74-5.97,1.94-8.94.86-13.38-2.67-10.99,2.8-17.08,1-21.26-2.12-4.88-4.23-10.52-2.22-13.02,1.72-2.13,1.22-5.31-1.75-10.02l-.05-1.32h.05c0-4.17-.19-5.51-.19-5.51,0,0-.13-2.26-.86-2.31-.93-.06-1.54-.33-1.94-.7-.96-1.77.01-2.85.49-2.92,1.78-.24,2.35,2.18,2.35,2.18,0,.4,1.37.63,1.37.02,0-2.69,3.36-3.99,4.03-6.4,1.2-4.32,7.54-2.55,7.54-2.55.73-2.77-2.08-4.86-3.55-5.82Z"/>
            <path class="cls-1" d="M860.71,589.96c5.32-1.67,3.56-7.44,1.65-7.47-1.41-.02-3.07-.05-5.09-.05-2.99,0-5.11-1.39-4.92-1.39h-8.37c-.21.17-.4.49-.51,1.06l-.03,7.84h17.26Z"/>
            <path class="cls-1" d="M786.06,587.97c4.69,3.02,8-2.04,6.78-3.52-.89-1.09-1.93-2.38-3.22-3.93-1.92-2.29-2.22-4.81-2.09-4.67l-5.36-6.42c-.26-.05-.63,0-1.14.28l-6.04,5,11.06,13.26Z"/>
            <path class="cls-10" d="M864.63,471.47l-.62-1.21,5.07-2.62.64,1.22c1.57.6,4.1,3.87,4.72,6.11.98,3.52-.49,7.08-2.47,7.36-2.01.28-3.37-1.99-4.37-5.12-.16-.52-.55-.84-.69-.07-.29,1.54-.81,2.24-1.29,2.14-.73-.15-1.89-4.73-.99-7.82Z"/>
            <path class="cls-10" d="M797.73,472.69l.02-1.35-5.7-.1-.03,1.38c-1.15,1.23-1.95,5.29-1.52,7.57.67,3.59,3.57,6.13,5.47,5.51,1.93-.64,2.15-3.27,1.65-6.53-.09-.53.12-.99.59-.37.93,1.25,1.7,1.65,2.09,1.35.59-.46-.4-5.07-2.57-7.45Z"/>
          </g>
        </g>
      </g>
    </g>
  </g>
</svg>